<?xml version="1.0" encoding="utf-8"?>
<!-- Generator: Adobe Illustrator 16.0.0, SVG Export Plug-In . SVG Version: 6.00 Build 0)  -->
<!DOCTYPE svg PUBLIC "-//W3C//DTD SVG 1.1//EN" "http://www.w3.org/Graphics/SVG/1.1/DTD/svg11.dtd">
<svg version="1.1" id="Layer_1" xmlns="http://www.w3.org/2000/svg" xmlns:xlink="http://www.w3.org/1999/xlink" x="0px" y="0px"
	 width="300px" height="200px" viewBox="0 0 300 200" enable-background="new 0 0 300 200" xml:space="preserve">
<g>
	<g>
		<g>
			<path fill="#15284B" d="M10.361,168.928v10.848c0,4.882,0.543,6.853,5.079,7.395v0.691c-2.514-0.049-4.536-0.099-7.002-0.099
				c-2.465,0-4.388,0.05-6.804,0.099v-0.691c4.438-0.591,4.931-2.612,4.931-7.395v-27.76c0-4.785-0.494-6.756-4.931-7.299v-0.789
				c3.698,0.05,7.742,0.05,11.39,0.05c7.889,0,11.883-0.05,14.201-0.492c-0.198,1.33-0.296,2.711-0.296,4.143
				c0,1.281,0.098,2.612,0.148,3.846l-0.542,0.049c-1.282-3.107-2.317-5.572-8.53-5.572c-6.705,0-7.644,0.295-7.644,5.572v14.891
				h5.277c4.881,0,7.1-0.049,7.395-3.106h0.691c-0.049,2.514-0.049,3.45-0.049,4.438c0,0.985,0,1.726,0.049,4.142h-0.691
				c-0.345-2.811-2.613-2.958-7.395-2.958H10.361z"/>
			<path fill="#15284B" d="M38.912,168.928v10.798c0,5.474,0.098,5.867,7.642,5.867c7.791,0,9.369-2.217,11.637-5.325l0.395,0.493
				c-1.283,2.467-2.367,5.177-2.811,7.545c-2.712-0.543-6.903-0.543-13.363-0.543c-4.043,0-8.185,0.05-12.228,0.147v-0.691
				c4.438-0.591,4.931-2.612,4.931-7.395v-21.893c0-4.783-0.493-6.756-4.931-7.298v-0.789c3.697,0.05,7.741,0.05,11.39,0.05
				c7.89,0,11.882-0.05,14.201-0.492c-0.198,1.33-0.296,2.711-0.296,4.142c0,1.281,0.099,2.613,0.148,3.846l-0.542,0.049
				c-1.282-3.106-2.318-5.571-8.531-5.571c-6.706,0-7.642,0.296-7.642,5.571v8.975h5.127c4.882,0,7.101-0.049,7.397-3.106h0.69
				c-0.049,2.514-0.049,3.45-0.049,4.438c0,0.985,0,1.726,0.049,4.142h-0.69c-0.346-2.811-2.614-2.958-7.397-2.958H38.912z"/>
			<path fill="#15284B" d="M70.714,187.862v-0.691c4.438-0.591,4.931-2.612,4.931-7.395v-11.144c0-6.114-11.833-22.387-15.73-22.387
				c-0.296,0-1.231,0-1.528,0.099l-0.295-0.936c1.626-0.79,2.614-1.283,4.585-1.283c2.958,0,12.327,9.519,15.187,20.363
				c3.748-10.601,12.475-20.363,16.814-20.363c0.985,0,1.528,0.099,2.711,0.543v0.788c-0.049,0-1.282,0.05-1.332,0.05
				c-3.746,0-16.616,17.355-16.616,22.337v11.933c0,4.882,0.542,6.853,5.078,7.395v0.691c-2.514-0.049-4.536-0.099-7.001-0.099
				C75.053,187.763,73.13,187.813,70.714,187.862z"/>
			<path fill="#15284B" d="M115.633,169.076c0-10.108,7.347-20.266,21.597-20.266c5.275,0,10.158,1.134,11.834,1.726l-0.839,6.113
				h-0.888c-0.493-3.155-4.388-5.769-9.861-5.769c-12.327,0-17.553,9.123-17.553,18.146c0,8.973,6.164,17.849,19.181,17.849
				c1.084,0,6.361-0.148,8.826-5.078h0.936l-1.972,5.77c-3.057,0.787-6.311,1.279-9.517,1.279
				C122.734,188.846,115.633,178.988,115.633,169.076z"/>
			<path fill="#15284B" d="M166.321,144.077v0.789c-4.536,0.543-5.078,2.418-5.078,7.298v27.513c0,5.475,0.099,5.868,6.656,5.868
				c7.79,0,9.367-2.219,11.635-5.325l0.396,0.491c-1.282,2.468-2.366,5.178-2.812,7.546c-2.71-0.542-6.902-0.542-13.361-0.542
				c-4.043,0-7.199,0.049-11.242,0.147v-0.691c4.438-0.591,4.931-2.612,4.931-7.395v-27.612c0-4.783-0.492-6.755-4.931-7.298v-0.789
				c2.465,0,4.486,0.049,6.952,0.049S163.856,144.077,166.321,144.077z"/>
			<path fill="#15284B" d="M182.887,187.763v-0.691c4.438-0.591,4.932-2.613,4.932-7.396v-21.744c0-4.783-0.493-6.756-4.932-7.298
				v-0.789c2.466,0,4.487,0.05,6.952,0.05c2.466,0,4.389-0.05,6.854-0.05v0.789c-4.536,0.542-5.078,2.415-5.078,7.298v21.744
				c0,4.882,0.542,6.854,5.078,7.396v0.691c-2.515-0.049-4.536-0.099-7.003-0.099C187.226,187.665,185.303,187.714,182.887,187.763z
				"/>
			<path fill="#15284B" d="M195.264,139.983c9.861,0,24.85,24.705,40.137,41.272v-24.507c0-5.274-2.12-5.572-5.08-6.114v-0.789
				c2.466,0,3.896,0.05,6.361,0.05s3.846-0.05,6.311-0.05v0.789c-3.057,0.542-5.078,0.739-5.078,6.114v27.169
				c6.903,7.002,13.756,12.032,20.266,12.032c2.712,0,5.178-0.644,7.593-2.269l0.494,0.737c-3.255,2.515-6.706,3.602-10.058,3.602
				c-15.483,0-33.679-26.922-47.632-43.392v26.28c0,5.277,2.12,5.572,5.078,6.114v0.79c-2.466,0-3.896-0.05-6.361-0.05
				c-2.465,0-3.845,0.05-6.312,0.05v-0.79c3.057-0.542,5.08-0.738,5.08-6.114V151.72c-5.128-5.72-9.566-9.664-12.968-9.664
				c-2.27,0-3.502,0.836-5.376,2.069l-0.442-0.738c2.612-2.021,4.388-2.96,7.1-3.354
				C194.672,139.983,194.969,139.983,195.264,139.983z"/>
			<path fill="#15284B" d="M246.692,187.763v-0.691c4.438-0.591,4.932-2.613,4.932-7.396v-21.744c0-4.783-0.494-6.756-4.932-7.298
				v-0.789c2.467,0,4.488,0.05,6.953,0.05s4.389-0.05,6.854-0.05v0.789c-4.537,0.542-5.079,2.415-5.079,7.298v21.744
				c0,4.882,0.542,6.854,5.079,7.396v0.691c-2.515-0.049-4.537-0.099-7.002-0.099C251.031,187.665,249.108,187.714,246.692,187.763z
				"/>
			<path fill="#15284B" d="M264.937,169.076c0-10.108,7.346-20.266,21.595-20.266c5.275,0,10.158,1.134,11.834,1.726l-0.838,6.113
				h-0.888c-0.493-3.155-4.389-5.769-9.861-5.769c-12.327,0-17.554,9.123-17.554,18.146c0,8.973,6.164,17.849,19.181,17.849
				c1.085,0,6.36-0.148,8.826-5.078h0.937l-1.973,5.77c-3.058,0.787-6.311,1.279-9.516,1.279
				C272.037,188.846,264.937,178.988,264.937,169.076z"/>
		</g>
		<g>
			<g>
				<path fill="#15284B" d="M142.129,49.099c2.413,1.953,4.985,3.059,7.793,2.155c3.589-1.156,5.125-4.106,5.56-7.84
					C151.705,46.887,147.987,50.361,142.129,49.099z"/>
			</g>
			<g>
				<path fill="#15284B" d="M139.241,43.424c5.796-3.402,11.33-6.653,16.848-9.895C148.187,32.663,143.742,37.815,139.241,43.424z"
					/>
			</g>
			<g>
				<g>
					<path fill="#15284B" d="M164.972,57.533c2.516-0.942,4.797-1.795,7.079-2.65C168.499,54.161,165.456,55.342,164.972,57.533z"/>
				</g>
			</g>
			<g>
				<path fill="#15284B" d="M129.04,56.335c2.334,0.699,4.667,1.396,7.242,2.168C135.653,56.348,132.535,55.375,129.04,56.335z"/>
			</g>
			<g>
				<path fill="#15284B" d="M213.817,43.323c-0.001,0,0.014-0.498,0.017-0.771c0.044-4.736-0.693-9.316-2.167-13.751
					c0,0-0.189-0.645-0.325-0.95c-0.197-0.551-0.737-1.596-0.737-1.596c-6.87-14.06-21.028-23.332-36.802-23.865
					c-6.819-0.231-13.511,1.176-19.568,4.038c-0.004,0.001-0.008,0.004-0.013,0.005c-0.614,0.291-1.22,0.602-1.82,0.923
					c-0.15,0.081-0.301,0.162-0.451,0.243c-0.603,0.332-1.2,0.67-1.789,1.031c-0.054,0.033-0.107,0.067-0.161,0.103
					c-0.054-0.036-0.107-0.07-0.161-0.103c-0.588-0.361-1.187-0.699-1.788-1.031c-0.151-0.081-0.302-0.162-0.451-0.243
					c-0.602-0.321-1.208-0.632-1.821-0.923c-0.004-0.001-0.009-0.004-0.012-0.005c-6.058-2.861-12.749-4.269-19.569-4.038
					c-15.773,0.533-29.932,9.805-36.801,23.865c0,0-0.541,1.045-0.738,1.596c-0.134,0.305-0.323,0.95-0.323,0.95
					c-1.476,4.435-2.212,9.015-2.169,13.751c0.003,0.273,0.018,0.771,0.018,0.771c0,0-0.054,0.486-0.016,1.31
					c0.007,0.402,0.069,0.962,0.129,1.584c0.047,0.628,0.155,1.333,0.271,2.114c0.104,0.784,0.297,1.638,0.473,2.57
					c0.22,0.919,0.436,1.923,0.742,2.969c0.276,1.054,0.639,2.157,1.016,3.315c0.202,0.574,0.411,1.164,0.621,1.767
					c0.242,0.595,0.488,1.203,0.739,1.823c0.249,0.611,0.504,1.234,0.763,1.868c0.128,0.317,0.26,0.637,0.392,0.962
					c0.134,0.322,0.302,0.642,0.455,0.968c0.318,0.663,0.643,1.335,0.97,2.021c0.317,0.658,0.638,1.326,0.964,2.002
					c0.14,0.256,0.283,0.518,0.423,0.773c0.599,1.091,1.209,2.199,1.832,3.334c0.193,0.348,0.386,0.7,0.581,1.052
					c0.212,0.344,0.427,0.689,0.641,1.036c0.428,0.691,0.861,1.39,1.296,2.096c0.442,0.701,0.869,1.419,1.328,2.124
					c0.478,0.694,0.957,1.392,1.44,2.094c0.976,1.397,1.91,2.849,2.987,4.213c1.056,1.381,2.094,2.793,3.182,4.173
					c1.121,1.354,2.249,2.711,3.375,4.068c0.55,0.689,1.151,1.336,1.742,1.989c0.59,0.653,1.183,1.306,1.77,1.955
					c0.593,0.653,1.183,1.306,1.773,1.954c0.611,0.619,1.221,1.237,1.83,1.853c0.607,0.616,1.213,1.229,1.814,1.84
					c0.603,0.609,1.193,1.226,1.828,1.793c1.248,1.158,2.479,2.302,3.691,3.428c1.219,1.118,2.485,2.134,3.688,3.174
					c0.607,0.512,1.206,1.022,1.797,1.524c0.615,0.475,1.221,0.944,1.82,1.405c1.203,0.917,2.346,1.846,3.501,2.678
					c1.166,0.816,2.293,1.606,3.374,2.361c1.065,0.781,2.156,1.426,3.172,2.07c1.021,0.636,1.988,1.239,2.898,1.806
					c1.68,0.919,3.142,1.746,4.407,2.42c-0.094,0.053-0.198,0.113-0.29,0.163c-2.75,1.374-4.322,2.158-4.322,2.158
					s1.586-0.754,4.366-2.075c0.112-0.057,0.238-0.126,0.353-0.188c0.116,0.062,0.241,0.132,0.353,0.188
					c2.781,1.321,4.368,2.075,4.368,2.075s-1.572-0.784-4.323-2.158c-0.092-0.05-0.195-0.11-0.29-0.163
					c1.267-0.674,2.729-1.501,4.407-2.42c0.91-0.566,1.879-1.17,2.898-1.806c1.017-0.645,2.107-1.289,3.172-2.07
					c1.081-0.755,2.209-1.545,3.375-2.361c1.154-0.832,2.297-1.761,3.501-2.678c0.599-0.461,1.205-0.93,1.818-1.405
					c0.592-0.502,1.191-1.012,1.799-1.524c1.201-1.04,2.468-2.056,3.686-3.174c1.213-1.125,2.443-2.27,3.691-3.428
					c0.636-0.568,1.226-1.184,1.829-1.793c0.602-0.611,1.206-1.224,1.815-1.84c0.605-0.616,1.217-1.233,1.828-1.853
					c0.591-0.648,1.181-1.301,1.771-1.954c0.59-0.649,1.182-1.302,1.771-1.955c0.591-0.653,1.192-1.3,1.743-1.989
					c1.125-1.357,2.253-2.714,3.372-4.068c1.09-1.38,2.128-2.792,3.184-4.173c1.076-1.364,2.011-2.816,2.987-4.213
					c0.483-0.702,0.963-1.399,1.441-2.094c0.459-0.705,0.886-1.423,1.327-2.124c0.435-0.706,0.868-1.405,1.296-2.096
					c0.214-0.347,0.429-0.692,0.641-1.036c0.197-0.352,0.389-0.705,0.582-1.052c0.624-1.135,1.232-2.243,1.832-3.334
					c0.141-0.255,0.284-0.517,0.423-0.773c0.327-0.677,0.646-1.345,0.964-2.002c0.33-0.686,0.65-1.358,0.97-2.021
					c0.153-0.327,0.321-0.646,0.455-0.968c0.131-0.325,0.262-0.645,0.391-0.962c0.26-0.634,0.516-1.257,0.763-1.868
					c0.254-0.621,0.498-1.229,0.74-1.823c0.213-0.604,0.42-1.193,0.62-1.767c0.378-1.158,0.741-2.261,1.017-3.315
					c0.307-1.046,0.521-2.049,0.743-2.969c0.174-0.932,0.367-1.786,0.471-2.57c0.116-0.78,0.226-1.485,0.272-2.114
					c0.061-0.622,0.122-1.183,0.13-1.584C213.87,43.809,213.817,43.323,213.817,43.323z M211.592,45.632
					c-0.012,0.138-0.023,0.281-0.034,0.432c-0.031,0.564-0.123,1.229-0.216,1.973c-0.083,0.744-0.252,1.561-0.403,2.453
					c-0.194,0.887-0.38,1.852-0.658,2.868c-0.245,1.022-0.575,2.094-0.921,3.227c-0.185,0.562-0.375,1.139-0.567,1.729
					c-0.223,0.58-0.451,1.173-0.683,1.778c-0.236,0.614-0.481,1.242-0.726,1.881c-0.124,0.32-0.247,0.644-0.373,0.97
					c-0.127,0.323-0.282,0.63-0.426,0.95c-0.582,1.275-1.183,2.589-1.802,3.943c-0.696,1.327-1.41,2.691-2.141,4.084
					c-0.184,0.348-0.367,0.698-0.553,1.05c-0.202,0.343-0.407,0.686-0.61,1.032c-0.411,0.693-0.823,1.39-1.242,2.096
					c-0.423,0.702-0.831,1.419-1.271,2.125c-0.456,0.695-0.918,1.395-1.382,2.099c-0.939,1.401-1.836,2.856-2.877,4.229
					c-1.019,1.388-2.02,2.807-3.071,4.198c-1.087,1.362-2.177,2.731-3.269,4.102c-0.533,0.695-1.116,1.349-1.691,2.008
					c-0.575,0.661-1.147,1.319-1.72,1.977c-0.572,0.656-1.141,1.31-1.709,1.962c-0.602,0.633-1.199,1.263-1.795,1.89
					c-0.593,0.628-1.188,1.251-1.778,1.874c-0.591,0.62-1.169,1.25-1.786,1.823c-1.216,1.175-2.416,2.334-3.597,3.474
					c-1.188,1.133-2.43,2.171-3.607,3.23c-0.594,0.522-1.179,1.04-1.76,1.552c-0.603,0.483-1.197,0.964-1.783,1.436
					c-1.181,0.937-2.302,1.885-3.437,2.737c-1.146,0.836-2.255,1.643-3.317,2.417c-1.048,0.8-2.12,1.465-3.12,2.126
					c-1.007,0.652-1.96,1.273-2.857,1.857c-1.682,0.964-3.145,1.829-4.41,2.537c-1.263-0.708-2.728-1.573-4.41-2.537
					c-0.896-0.584-1.85-1.205-2.856-1.857c-1.001-0.662-2.073-1.326-3.121-2.126c-1.063-0.774-2.172-1.582-3.317-2.417
					c-1.135-0.853-2.256-1.801-3.437-2.737c-0.587-0.472-1.182-0.953-1.784-1.436c-0.58-0.513-1.167-1.03-1.76-1.552
					c-1.176-1.059-2.418-2.097-3.606-3.23c-1.18-1.14-2.381-2.299-3.596-3.474c-0.617-0.573-1.197-1.203-1.788-1.823
					c-0.589-0.623-1.182-1.246-1.777-1.874c-0.596-0.626-1.193-1.257-1.794-1.89c-0.568-0.652-1.138-1.306-1.708-1.962
					c-0.573-0.657-1.147-1.316-1.721-1.977c-0.576-0.659-1.158-1.313-1.693-2.008c-1.09-1.371-2.181-2.739-3.267-4.102
					c-1.052-1.391-2.052-2.81-3.071-4.198c-1.042-1.374-1.939-2.829-2.878-4.229c-0.462-0.704-0.925-1.404-1.381-2.099
					c-0.44-0.706-0.849-1.423-1.27-2.125c-0.419-0.706-0.831-1.403-1.242-2.096c-0.204-0.346-0.409-0.688-0.611-1.032
					c-0.186-0.352-0.371-0.703-0.554-1.05c-0.73-1.394-1.443-2.758-2.14-4.084c-0.619-1.354-1.219-2.668-1.801-3.943
					c-0.142-0.32-0.299-0.627-0.425-0.95c-0.127-0.327-0.25-0.65-0.374-0.97c-0.247-0.639-0.49-1.267-0.727-1.881
					c-0.23-0.605-0.459-1.198-0.682-1.778c-0.194-0.59-0.384-1.168-0.568-1.729c-0.345-1.132-0.676-2.205-0.921-3.227
					c-0.278-1.016-0.464-1.98-0.658-2.868c-0.15-0.892-0.321-1.709-0.404-2.453c-0.094-0.744-0.184-1.408-0.216-1.973
					c-0.01-0.151-0.021-0.294-0.035-0.432c-0.018-1.015-0.021-2.035-0.032-3.055c-0.042-4.781,0.742-9.446,2.328-13.896
					c6.226-14.144,20.073-23.562,35.569-24.086c5.836-0.197,11.574,0.873,16.861,3.075c0.39,0.164,0.777,0.332,1.161,0.505
					c0.004,0.001,0.009,0.004,0.013,0.006c0.376,0.171,0.75,0.347,1.121,0.528c0.082,0.04,0.163,0.083,0.245,0.125
					c0.297,0.148,0.593,0.296,0.886,0.452c0.385,0.205,0.768,0.417,1.149,0.633c-0.01,0.005,0.007,0.021,0.039,0.042
					c0.013,0.008,0.033,0.019,0.051,0.03c-0.084,0.035-0.188,0.068-0.258,0.105c-0.013-0.024-0.015-0.062,0.074-0.111
					c-2.228,1.03-4.713,3.127-6.701,5.694c-2.941,3.795-4.88,8.297-5.917,13.766c-0.586,3.1-1.128,6.772-0.679,10.524
					c0.19,1.596-0.134,2.688-1.12,3.767c-1.963,2.149-4.013,4.467-6.648,7.52c-0.622,0.724-1.148,1.535-1.518,2.349
					c-0.871,1.922-0.478,3.594,1.17,4.974c0.464,0.389,0.959,0.686,1.438,0.974c0.144,0.086,0.289,0.174,0.432,0.264
					c0.629,0.389,0.585,0.602,0.438,1.007c-0.25,0.687-0.6,1.35-1.011,1.921c-1.179,1.633-1.579,2.956-0.134,4.879
					c0.901,1.196,0.815,1.824,0.342,2.558c-0.21,0.328-0.296,0.673-0.358,0.926l-0.037,0.145c-0.433,1.586-0.059,2.632,1.289,3.611
					c1.379,1,1.843,2.113,1.503,3.609c-0.303,1.339-0.591,2.788-0.908,4.561c-0.648,3.64,1.984,7.747,5.423,8.447
					c0.61,0.124,1.416,0.28,2.251,0.396l0.282,0.036c1.155,0.145,2.368,0.073,3.506-0.207l-0.012-0.054
					c4.062-0.984,7.7-1.543,11.55-1.689c3.94-0.148,7.415,0.143,10.678,0.869l0.382-2.153c-3.445-0.765-7.196-1.07-11.134-0.922
					c-3.939,0.148-7.859,0.749-12.186,1.812l0.006,0.03c-0.825,0.181-1.69,0.229-2.517,0.125l-0.255-0.035
					c-0.772-0.105-1.534-0.254-2.112-0.372c-2.06-0.418-4.167-3.222-3.689-5.896c0.31-1.738,0.593-3.157,0.888-4.461
					c0.54-2.377-0.254-4.358-2.359-5.883c-0.614-0.444-0.647-0.539-0.455-1.244l0.05-0.194c0.022-0.09,0.056-0.23,0.073-0.263
					c1.56-2.433,0.059-4.427-0.436-5.081c-0.656-0.872-0.695-1.075,0.162-2.26c0.528-0.734,0.977-1.583,1.294-2.458
					c0.378-1.041,0.453-2.516-1.343-3.635c-0.154-0.095-0.31-0.19-0.465-0.282c-0.426-0.255-0.827-0.497-1.159-0.774
					c-0.883-0.739-1.034-1.36-0.576-2.368c0.284-0.625,0.692-1.255,1.18-1.822c2.62-3.035,4.656-5.34,6.604-7.471
					c1.242-1.36,1.804-2.879,1.742-4.734c-0.009-0.255-0.029-0.517-0.062-0.787c-0.414-3.452,0.099-6.916,0.653-9.849
					c0.97-5.117,2.764-9.312,5.486-12.826c0.215-0.277,0.437-0.547,0.662-0.81c0.083-0.098,0.168-0.191,0.252-0.287
					c0.142-0.158,0.282-0.315,0.426-0.469c0.11-0.117,0.224-0.233,0.336-0.348c0.113-0.117,0.227-0.229,0.341-0.339
					c0.137-0.132,0.271-0.262,0.408-0.387c0.079-0.072,0.159-0.141,0.236-0.212c0.819-0.727,2.02-1.338,2.824-1.799
					c0-0.001,0.371-0.001,0.371-0.002v-0.06c0-0.136,0.077-0.366,0.336-0.378c0.013-0.003-0.36-0.088-0.35-0.088h0.01
					c0.095,0,0.408-0.008,0.502-0.045l-0.038-0.091c0.303-0.158,0.604-0.295,0.909-0.448c-0.005-0.001-0.009,0.006-0.014,0.001
					c-0.414-0.274-0.837-0.529-1.259-0.789l-0.008-0.024c0.45,0.275,0.899,0.555,1.34,0.848c1.29,0.856,2.54,1.786,3.733,2.796
					l0.052,0.039c0.09,0.068,0.186,0.148,0.283,0.231c0.092,0.079,0.185,0.162,0.282,0.251c0.3,0.278,0.62,0.604,0.96,0.985
					c2.609,2.921,6.177,8.641,7.415,13.387c0.751,2.89,1.496,6.312,1.315,9.784c-0.114,2.234,0.536,3.946,2.05,5.395
					c2.086,1.995,4.274,4.156,7.094,7.008c0.523,0.533,0.975,1.133,1.299,1.737c0.525,0.976,0.418,1.604-0.414,2.402
					c-0.312,0.3-0.698,0.568-1.105,0.852c-0.148,0.102-0.298,0.207-0.442,0.312c-1.718,1.238-1.544,2.706-1.096,3.719
					c0.376,0.852,0.88,1.669,1.457,2.365c0.933,1.124,0.907,1.329,0.314,2.244c-0.45,0.686-1.815,2.777-0.099,5.091
					c0.023,0.04,0.067,0.175,0.098,0.265l0.061,0.189c0.24,0.692,0.213,0.787-0.368,1.271c-1.999,1.666-2.658,3.694-1.959,6.03
					c0.384,1.282,0.761,2.678,1.187,4.392c0.657,2.634-1.257,5.574-3.283,6.13c-0.567,0.157-1.319,0.355-2.087,0.516
					c-1.035,0.216-2.088,0.206-3.129-0.024l-0.479,2.154c1.349,0.3,2.714,0.311,4.062,0.031c0.822-0.171,1.617-0.382,2.217-0.547
					c3.383-0.931,5.734-5.204,4.841-8.793c-0.437-1.748-0.821-3.174-1.214-4.488c-0.439-1.471-0.052-2.613,1.257-3.703
					c1.277-1.068,1.581-2.136,1.041-3.689l-0.046-0.142c-0.08-0.248-0.188-0.588-0.42-0.898c-0.521-0.704-0.651-1.324,0.169-2.581
					c1.311-2.014,0.821-3.306-0.464-4.856c-0.449-0.542-0.844-1.181-1.138-1.849c-0.174-0.395-0.232-0.602,0.368-1.035
					c0.136-0.099,0.273-0.195,0.413-0.291c0.459-0.321,0.935-0.65,1.372-1.07c1.55-1.487,1.829-3.184,0.828-5.041
					c-0.423-0.787-1.001-1.562-1.671-2.242c-2.834-2.867-5.035-5.043-7.139-7.052c-1.058-1.012-1.453-2.081-1.369-3.686
					c0.193-3.775-0.59-7.402-1.386-10.454c-1.288-4.943-4.84-10.725-7.656-14c-0.464-0.539-0.907-1.002-1.318-1.392
					c-0.002-0.001-0.005-0.005-0.009-0.007c-0.123-0.116-0.244-0.227-0.36-0.33c-0.131-0.113-0.261-0.222-0.382-0.314
					c-0.917-0.776-1.869-1.501-2.842-2.188c-0.537-0.38-1.09-0.736-1.641-1.088c0.557,0.277,1.113,0.555,1.672,0.843
					c0.029-0.021,0.048-0.037,0.037-0.042c0.381-0.216,0.764-0.428,1.148-0.633c0.293-0.156,0.59-0.304,0.887-0.452
					c0.082-0.042,0.162-0.085,0.245-0.125c0.371-0.181,0.746-0.357,1.121-0.528c0.004-0.002,0.009-0.004,0.013-0.006
					c0.384-0.174,0.771-0.342,1.161-0.505c5.286-2.202,11.026-3.271,16.861-3.075c15.495,0.524,29.344,9.943,35.569,24.086
					c1.586,4.45,2.371,9.115,2.328,13.896C211.614,43.598,211.612,44.617,211.592,45.632z"/>
			</g>
		</g>
	</g>
</g>
</svg>
